<svg xmlns="http://www.w3.org/2000/svg"
     enable-background="new 0 0 64 64"
     width="512" height="512"
     viewBox="0 0 64 64" fill="white">
  <path
    d="m62.988 37.939c-.005-.088-.023-.173-.052-.257-.011-.033-.018-.066-.032-.098-.048-.104-.11-.203-.194-.288-.001-.001-.002-.003-.003-.004 0 0 0-.001-.001-.001-.086-.085-.185-.147-.29-.195-.033-.015-.069-.022-.104-.033-.081-.027-.163-.045-.248-.05-.022-.002-.041-.013-.064-.013h-15.958c-.358 0-.688.191-.867.502l-.075.131 3.879-18.427c.067-.32-.026-.653-.25-.892l-16-17c-.015-.016-.037-.021-.052-.035-.078-.073-.165-.132-.262-.177-.011-.005-.019-.011-.03-.015-.121-.051-.249-.087-.385-.087s-.264.036-.384.087c-.011.004-.02.011-.03.016-.097.045-.184.104-.262.177-.016.014-.038.02-.052.035l-16 17c-.224.238-.317.571-.25.892l3.854 18.31-.007-.012c-.178-.311-.509-.503-.866-.504l-16-.042c-.001 0-.002 0-.003 0-.022 0-.042.011-.064.013-.082.005-.16.022-.238.047-.037.012-.073.019-.108.035-.107.048-.208.111-.296.197-.087.087-.15.19-.199.298-.015.033-.022.067-.033.102-.026.081-.044.162-.049.246-.002.02-.013.04-.013.061v16.042c0 .36.194.693.508.871l14.143 8c.15.085.319.129.492.129h5.857c.266 0 .52-.105.707-.293l2.876-2.876 3.803 2.958c.176.137.391.211.614.211h4c.223 0 .438-.074.614-.211l3.801-2.96 2.878 2.878c.187.188.441.293.707.293h6c.174 0 .345-.045.496-.132l14-8c.312-.178.504-.509.504-.868v-16c0-.022-.011-.04-.012-.061zm-6.516 13.43 4.528-9.11v10.404zm-6.743-6.096 10.043-5.037-5.007 10.074zm-10.729 9.841-.001-2.848 6.731-11.716 1.211 4.239zm8.368-16.114h10.407l-9.103 4.565zm-10.236 12.502c-.087.151-.133.323-.133.498l.001 6c0 .119.028.233.068.343l-1.647 1.283 5.51-32.143 5.397-5.397-4.455 21.163zm-11.946-23.502h13.627l-5.656 33h-2.314zm-7.793-9.021 12.309-13.079-6.155 19.233zm23.059 6.155-6.154-19.234 12.309 13.079zm-1.822.866h-13.26l6.63-20.719zm-20.959-3.915 5.397 5.397 5.511 32.145-1.648-1.282c.04-.108.068-.221.069-.338l.042-5.899c.001-.176-.044-.35-.132-.503l-4.794-8.407zm-10.102 29.284-4.569 1.305v-10.469zm1.706-1.058-5.039-10.108 10.078 5.069zm-3.039-11.342 10.439.027-1.305 4.567zm12.073 1.592 6.731 11.802-.019 2.724-7.921-10.297zm-13.738 13.744 4.219-1.205 10.27 7.9h-2.654zm17.343 6.367-11.401-8.771 5.389-5.389 8.77 11.402zm17.438-2.734 8.789-11.425 5.389 5.389-11.425 8.789zm8.382 3.062h-2.753l10.27-7.9 4.206 1.202z"/>
</svg>
